# xmcd CD database file
#
# Track frame offsets:
#	187
#	27900
#	48352
#	72002
#	114287
#	147425
#	169605
#	188417
#	209622
#
# Disc length: 3092 seconds
#
# Revision: 0
# Processed by: cddbd v1.5.1PL2 Copyright (c) Steve Scherf et al.
# Submitted via: CDex 1.51
#
DISCID=760c1209
DTITLE=Eugen Cicero - Rococo Jazz, Vol. 2
DYEAR=2000
DGENRE=Jazz
TTITLE0=Rococo in Rock
TTITLE1=Sarabande for Angelique
TTITLE2=Philipp's Swinging Fantasia
TTITLE3=Fantasia in Jazz
TTITLE4=Toccata et Fuga D-Minor
TTITLE5=Friedemann's Lamento E-Minor
TTITLE6=Sehnsucht Nach Dem Fruehling
TTITLE7=Menuette in Blues
TTITLE8=Riverside in Rondo
EXTD=YEAR: 2000
EXTT0=
EXTT1=
EXTT2=
EXTT3=
EXTT4=
EXTT5=
EXTT6=
EXTT7=
EXTT8=
PLAYORDER=
